<?xml version="1.0" encoding="utf-8"?>
<!-- Generator: Adobe Illustrator 25.4.1, SVG Export Plug-In . SVG Version: 6.00 Build 0)  -->
<svg version="1.1" id="Ebene_1" xmlns="http://www.w3.org/2000/svg" xmlns:xlink="http://www.w3.org/1999/xlink" x="0px" y="0px"
	 viewBox="0 0 242 40.74" style="enable-background:new 0 0 242 40.74;" xml:space="preserve">
<style type="text/css">
	.st0{fill:#2D2D2B;}
	.st1{fill:#206FB6;}
	.st2{fill:#9FC4E1;}
	.st3{fill:#5B9ACB;}
</style>
<g>
	<path class="st0" d="M235.89,4.95h0.67c0.77,0,1.41-0.27,1.41-0.98c0-0.5-0.37-1-1.41-1c-0.3,0-0.5,0.02-0.67,0.04V4.95z
		 M235.89,8.12h-0.92V2.39c0.48-0.07,0.95-0.13,1.64-0.13c0.87,0,1.45,0.18,1.8,0.43c0.35,0.25,0.53,0.64,0.53,1.19
		c0,0.75-0.51,1.21-1.13,1.39v0.05c0.51,0.09,0.86,0.55,0.97,1.39c0.14,0.89,0.28,1.23,0.37,1.41h-0.97
		c-0.14-0.18-0.28-0.71-0.4-1.46c-0.14-0.73-0.5-1-1.24-1h-0.65V8.12z M236.86,0.8c-2.29,0-4.16,1.94-4.16,4.33
		c0,2.44,1.87,4.35,4.18,4.35c2.31,0.02,4.17-1.92,4.17-4.33c0-2.41-1.86-4.35-4.17-4.35H236.86z M236.88,0
		c2.85,0,5.12,2.28,5.12,5.13c0,2.9-2.27,5.16-5.14,5.16c-2.85,0-5.15-2.26-5.15-5.16c0-2.85,2.31-5.13,5.15-5.13H236.88z"/>
	<path class="st1" d="M205.6,20.16l-10.63,20.16h11.55l2.53-6.79c0.91-2.48,1.75-4.55,2.42-6.85h0.12c1.01,2.3,1.85,4.37,2.93,6.9
		l2.82,6.73h11.78l-11.05-20.16H205.6z M159.38,20.16v1.81c0,12.81,5.46,18.77,15.88,18.77c10.66,0,16.51-6.19,16.51-18.47v-2.1
		h-10.2v2.7c0,6.31-1.97,9.44-6.02,9.44c-4,0-5.98-3.43-5.98-9.44v-2.7H159.38z M131.42,20.16v20.1h24.79v-8.91h-14.6V20.16H131.42z
		"/>
	<path class="st2" d="M141.62,0h-10.19v10.29h10.19V0z M169.58,0h-10.2v10.29h10.2V0z M191.77,0h-10.2v10.29h10.2V0z M211.04,10.29
		c-0.45-1.17-0.92-2.35-1.48-3.66L207.03,0H195.3l5.27,10.29H211.04z M223.14,10.29L228.43,0h-11.61l-2.37,6.69
		c-0.45,1.27-0.84,2.38-1.24,3.6H223.14z"/>
	<path class="st3" d="M141.62,10.29h-10.19v9.88h10.19V10.29z M169.58,10.29h-10.2v9.88h10.2V10.29z M191.77,10.29h-10.2v9.88h10.2
		V10.29z M218.06,20.16l5.08-9.88h-9.93c-0.29,0.88-0.6,1.81-0.95,2.89h-0.16c-0.35-1-0.7-1.94-1.06-2.89h-10.46l5.04,9.84
		l-0.02,0.03H218.06z"/>
	<path class="st0" d="M4.67,20.46c1.02,0.28,2.36,0.39,3.86,0.39c5.69,0,9.08-2.92,9.08-8.04c0-5.06-3.38-7.48-8.54-7.48
		c-2.04,0-3.6,0.22-4.4,0.39V20.46z M0,2.23c2.26-0.45,5.21-0.79,8.97-0.79c4.62,0,8,1.12,10.15,3.15c1.99,1.8,3.22,4.56,3.22,7.93
		c0,3.43-0.97,6.13-2.85,8.1c-2.47,2.76-6.5,4.16-11.06,4.16c-1.39,0-2.68-0.05-3.76-0.34v15.43H0V2.23z"/>
	<path class="st0" d="M26.73,20.91c0-3.21-0.05-5.96-0.22-8.5h4.14l0.21,5.34h0.16c1.18-3.66,4.08-5.96,7.25-5.96
		c0.48,0,0.85,0.06,1.28,0.17v4.61c-0.54-0.05-1.02-0.11-1.66-0.11c-3.33,0-5.69,2.65-6.34,6.3c-0.1,0.73-0.16,1.52-0.16,2.36v14.75
		l-4.65,0L26.73,20.91z"/>
	<path class="st0" d="M44.04,12.41h4.73v27.47h-4.73V12.41z M46.29,7.41c-1.77,0-2.95-1.46-2.95-3.21c0-1.74,1.24-3.15,3.06-3.15
		c1.82,0,3.01,1.41,3.01,3.15c0,1.75-1.18,3.21-3.06,3.21H46.29z"/>
	<path class="st0" d="M55.79,19.78c0-2.87-0.06-5.12-0.22-7.37h4.19l0.26,4.45h0.11c1.29-2.54,4.3-5.07,8.59-5.07
		c3.6,0,9.18,2.25,9.18,11.59v16.5h-4.73V23.94c0-4.39-1.56-8.1-6.01-8.1c-3.06,0-5.48,2.31-6.33,5.06
		c-0.22,0.62-0.32,1.52-0.32,2.3v16.67h-4.72V19.78z"/>
	<path class="st0" d="M90.24,5.89v6.53H97v3.77h-6.77v14.68c0,3.38,0.91,5.29,3.54,5.29c1.29,0,2.04-0.11,2.74-0.33l0.22,3.77
		c-0.92,0.34-2.36,0.68-4.2,0.68c-2.2,0-3.97-0.79-5.1-2.08c-1.29-1.53-1.83-3.94-1.83-7.15V16.18h-4.03v-3.77h4.03V7.41L90.24,5.89
		z"/>
	<path class="st0" d="M111.51,36.54c4.51,0,7.9-4.44,7.9-10.63c0-4.61-2.2-10.41-7.79-10.41c-5.53,0-7.95,5.4-7.95,10.57
		c0,5.96,3.22,10.46,7.79,10.46H111.51z M111.35,40.25c-6.98,0-12.46-5.4-12.46-14c0-9.11,5.74-14.46,12.88-14.46
		c7.47,0,12.52,5.68,12.52,13.95c0,10.12-6.71,14.51-12.89,14.51H111.35z"/>
</g>
</svg>
